<svg xmlns="http://www.w3.org/2000/svg" viewBox="0 0 378 100">
  <defs>
    <style>
      .cls-1, .cls-2 {
        fill: rgba(123,237,206,0.8);
      }

      .cls-1 {
        font-size: 90px;
        font-family: Yutapon-coding-Heavy-Sl, Yutapon coding Heavy Sl;
      }
    </style>
  </defs>
  <g id="btn_skill_active" transform="translate(-661.823 -336)">
    <text id="SKILL" class="cls-1" transform="translate(789.823 340)"><tspan x="12.5" y="77">SKILL</tspan></text>
    <path id="code-solid" class="cls-2" d="M54.457,99.94,42.542,96.482a2.347,2.347,0,0,1-1.6-2.91L67.6,1.729a2.347,2.347,0,0,1,2.91-1.6L82.428,3.585a2.347,2.347,0,0,1,1.6,2.91L57.367,98.338A2.341,2.341,0,0,1,54.457,99.94ZM32.189,78.024l8.5-9.063a2.344,2.344,0,0,0-.156-3.36l-17.7-15.568,17.7-15.568a2.327,2.327,0,0,0,.156-3.36l-8.5-9.063a2.346,2.346,0,0,0-3.321-.1L.722,48.315a2.328,2.328,0,0,0,0,3.418L28.869,78.122a2.329,2.329,0,0,0,3.321-.1Zm63.911.117,28.147-26.389a2.328,2.328,0,0,0,0-3.418L96.1,21.926a2.365,2.365,0,0,0-3.321.1l-8.5,9.063a2.344,2.344,0,0,0,.156,3.36l17.7,15.587L84.439,65.6a2.327,2.327,0,0,0-.156,3.36l8.5,9.063a2.347,2.347,0,0,0,3.321.117Z" transform="translate(661.848 335.963)"/>
  </g>
</svg>
