<svg xmlns="http://www.w3.org/2000/svg" viewBox="0 0 360.93 100"><defs><style>.a{fill:#87918f;}</style></defs><g transform="translate(-634.823 -1052)"><path class="a" d="M33.066,77.176a15.974,15.974,0,0,1-6.416-1.187,18.67,18.67,0,0,1-5.581-4.043,14.258,14.258,0,0,1-3.823-6.987A67.613,67.613,0,0,1,15.84,56.7q.264-3.164,2.373-3.779a7.225,7.225,0,0,1,3.735-.22q1.626.4,3.12,2.856.439,3.428,1.1,6.328A11.036,11.036,0,0,0,28.232,66.5a9,9,0,0,0,2.813,2.417,5.25,5.25,0,0,0,2.988.527,25.353,25.353,0,0,0,3.34-.615A4.317,4.317,0,0,0,40.1,66.8a13.143,13.143,0,0,0,1.45-3.3,9.043,9.043,0,0,0,.044-4.087,17.162,17.162,0,0,0-1.538-4.57A25.953,25.953,0,0,0,35.967,49.4a54.685,54.685,0,0,0-7.822-6.812,27.048,27.048,0,0,1-7.075-7.163,16.012,16.012,0,0,1-2.5-5.581,20.878,20.878,0,0,1,.088-5.01,15.672,15.672,0,0,1,2.417-6.372A26.968,26.968,0,0,1,25.6,12.84a12.2,12.2,0,0,1,5.054-2.988,20.905,20.905,0,0,1,5.493-.7,13,13,0,0,1,5.361,1.1,14.015,14.015,0,0,1,4.834,3.911,32.725,32.725,0,0,1,4.219,6.5A19.451,19.451,0,0,1,52.4,29.451a9.691,9.691,0,0,1-1.318,1.978,3.9,3.9,0,0,1-3.032.923,3.9,3.9,0,0,1-3.032-.923,16.6,16.6,0,0,1-1.406-1.89,19.276,19.276,0,0,0-1.494-5.889A13.176,13.176,0,0,0,39.57,19.7a7.452,7.452,0,0,0-2.856-1.89,4.742,4.742,0,0,0-2.681-.176,8.388,8.388,0,0,0-2.021.747,6.316,6.316,0,0,0-1.8,1.846,14.643,14.643,0,0,0-1.758,3.384,8.036,8.036,0,0,0-.483,3.955,9.161,9.161,0,0,0,1.143,3.472,15.54,15.54,0,0,0,3.516,3.647q2.637,2.153,7.866,6.987a34.444,34.444,0,0,1,7.559,9.448,25.023,25.023,0,0,1,2.681,7.251,22.913,22.913,0,0,1,0,5.669,14.431,14.431,0,0,1-1.89,5.669,16.888,16.888,0,0,1-4.131,4.7,10.7,10.7,0,0,1-5.229,2.417A49.592,49.592,0,0,1,33.066,77.176ZM89.141,75.77a39.883,39.883,0,0,1-4.219-5.317q-1.758-2.681-6.68-9.536-4.131-5.8-5.8-8.35Q72.178,57.313,72,62.5q-.352,6.416-.879,11.689-1.582,2.9-5.537,2.9a4.281,4.281,0,0,1-3.516-4.482q.352-4.57.7-8.833t.571-8.394q.22-4.131.22-13.755T63.257,24.4q-.308-7.6-.308-12.261a22.825,22.825,0,0,1,1.494-1.846q.791-.879,3.076-.879t3.032.967a13.335,13.335,0,0,1,1.362,2.2q0,4.57.22,12.085t.308,11.03q1.143-2.988,6.064-10.459t7.119-10.327q2.2-2.856,3.34-4.351,3.428-2.285,6.284.22t-.044,5.405q-5.713,8.262-10.239,14.9a94.3,94.3,0,0,0-7.6,13.228q4.395,6.855,9.58,13.667t9.932,13.491q1.23,3.867-2.021,4.79A7.166,7.166,0,0,1,89.141,75.77Zm30.41.967q-6.064-.176-6.284-3.735t4.263-5.581l3.516-.439-.088-.7q-.7-11.777-.879-21.621,0-8.437.352-15.117l.176-8q0-1.055.088-1.934a11.969,11.969,0,0,1-2.2-.615,6.306,6.306,0,0,1-3.6-2.109,5.625,5.625,0,0,1-.967-4.395q1.143-2.812,6.592-3.516a37.034,37.034,0,0,1,5.493-.264,57.3,57.3,0,0,1,6.021.615q1.846,1.055,3.34,1.934a5.216,5.216,0,0,1,1.143,4.219q-.439,2.637-3.955,3.867l-2.2.527-.7.088a14.534,14.534,0,0,0-.176,1.934l-.176,7.734q-.527,7.207-.352,15.029.176,9.932,1.055,21.27l.176,1.055,1.67.088a5.209,5.209,0,0,1,4.131,5.186q-1.055,4.482-5.361,4.482Zm37.617,1.143a8.069,8.069,0,0,1-2.373-.835,5.6,5.6,0,0,1-1.582-1.626q.352-30.85.264-43.9t-.264-18.237q1.23-3.252,3.6-3.823a4.55,4.55,0,0,1,4,.659,5.39,5.39,0,0,1,1.8,4.219,168.3,168.3,0,0,0-.439,17.314q.088,13.008.088,37.529a80.331,80.331,0,0,1,9.36-.439q5.757,0,6.9.176l-.088-2.461,1.318-2.637a3.239,3.239,0,0,1,2.329-1.23q1.187,0,2.285.088a3.285,3.285,0,0,1,2.065,1.055q.967.967,1.143,3.779a27.559,27.559,0,0,0,.352,7.471,6.189,6.189,0,0,1-2.065,2.109,5.481,5.481,0,0,1-3.472.571,29.126,29.126,0,0,1-3.691-.571,40.831,40.831,0,0,0-6.987-.352,66.742,66.742,0,0,0-8.394.4Q160.42,77.527,157.168,77.879Zm45,0a8.069,8.069,0,0,1-2.373-.835,5.6,5.6,0,0,1-1.582-1.626q.352-30.85.264-43.9t-.264-18.237q1.23-3.252,3.6-3.823a4.55,4.55,0,0,1,4,.659,5.39,5.39,0,0,1,1.8,4.219,168.3,168.3,0,0,0-.439,17.314q.088,13.008.088,37.529a80.331,80.331,0,0,1,9.36-.439q5.757,0,6.9.176l-.088-2.461,1.318-2.637a3.239,3.239,0,0,1,2.329-1.23q1.187,0,2.285.088a3.285,3.285,0,0,1,2.065,1.055q.967.967,1.143,3.779a27.559,27.559,0,0,0,.352,7.471,6.189,6.189,0,0,1-2.065,2.109,5.481,5.481,0,0,1-3.472.571,29.126,29.126,0,0,1-3.691-.571,40.831,40.831,0,0,0-6.987-.352,66.742,66.742,0,0,0-8.394.4Q205.42,77.527,202.168,77.879Z" transform="translate(762.823 1056)"/><path class="a" d="M54.457,99.94,42.542,96.482a2.347,2.347,0,0,1-1.6-2.91L67.6,1.729a2.347,2.347,0,0,1,2.91-1.6L82.428,3.585a2.347,2.347,0,0,1,1.6,2.91L57.367,98.338A2.341,2.341,0,0,1,54.457,99.94ZM32.189,78.024l8.5-9.063a2.344,2.344,0,0,0-.156-3.36l-17.7-15.568,17.7-15.568a2.327,2.327,0,0,0,.156-3.36l-8.5-9.063a2.346,2.346,0,0,0-3.321-.1L.722,48.315a2.328,2.328,0,0,0,0,3.418L28.869,78.122a2.329,2.329,0,0,0,3.321-.1Zm63.911.117,28.147-26.389a2.328,2.328,0,0,0,0-3.418L96.1,21.926a2.365,2.365,0,0,0-3.321.1l-8.5,9.063a2.344,2.344,0,0,0,.156,3.36l17.7,15.587L84.439,65.6a2.327,2.327,0,0,0-.156,3.36l8.5,9.063a2.347,2.347,0,0,0,3.321.117Z" transform="translate(634.848 1051.963)"/></g></svg>