<svg xmlns="http://www.w3.org/2000/svg" viewBox="0 0 358.402 90"><defs><style>.a{fill:rgba(123,237,206,0.8);}</style></defs><g transform="translate(-1101 -336)"><path class="a" d="M48.229,76.736a43.726,43.726,0,0,1-3.516-5.625q-1.846-4.922-2.812-8.35l-2.2-6.768a31.147,31.147,0,0,1-1.23-4.307,47.929,47.929,0,0,1-1.758,6.064l-1.67,5.889-1.23,3.867-1.406,3.955a21.477,21.477,0,0,1-3.867,5.625,17.148,17.148,0,0,1-4.57.088,3.413,3.413,0,0,1-2.2-2.637l-.439-6.592q-1.055-14.5-1.1-27.2t-.044-23.687l.176-5.977q.7-.879,1.362-1.8t2.944-.923q2.373,0,3.208.879A14.381,14.381,0,0,1,29.42,11.17l-.176,8.262q0,8.086.088,17.4.176,8.525.264,16.787a17.1,17.1,0,0,1,1.23-5.186q1.846-4.834,3.516-8.35a5.206,5.206,0,0,1,4.614-2.373q2.856.088,3.735,2.2,1.758,2.461,3.428,8.525,1.318,3.691,1.758,5.537V42.459q-.088-8.7,0-18.9l.176-13.184a5.5,5.5,0,0,1,2.725-2.285,11.282,11.282,0,0,1,4.922.439,6,6,0,0,1,1.055,3.823q-.176,1.89-.176,11.733V58.279q-.176,5.273,0,12.217l-.615,6.064-1.846.615Q51.832,78.23,48.229,76.736Zm33.926.439a18.045,18.045,0,0,1-6.284-1.187,15.32,15.32,0,0,1-6.24-4.834,22.371,22.371,0,0,1-4.307-10.107,70.686,70.686,0,0,1-1.143-14.722A85.656,85.656,0,0,1,66.2,29.407q1.89-8.657,5.493-13.359t7.471-6.064a14.68,14.68,0,0,1,7.207-.835,13.567,13.567,0,0,1,6.24,2.769,10.751,10.751,0,0,1,3.779,4.7q.176-.088,1.1-.615a7.326,7.326,0,0,1,2.856-.7q3.6,1.143,3.867,3.6a5.069,5.069,0,0,1-2.109,4.482l-2.021,1.143q.967,5.186,1.318,9.272t.352,14.37q0,10.283-1.846,15.645a19.836,19.836,0,0,1-5.449,8.569,17.547,17.547,0,0,1-6.372,4A21.508,21.508,0,0,1,82.154,77.176Zm4.746-9.4q1.143-1.23,2.5-2.856a10.431,10.431,0,0,0,1.978-3.56q.615-1.934.967-3.56a42.21,42.21,0,0,0,.439-6.592q.088-4.966,0-9.4t-.527-8.35q-.439-3.911-.879-6.284a17.26,17.26,0,0,1-6.68-.308,11.442,11.442,0,0,1-6.152-2.944q-1.582-1.758-1.23-.527-1.23,2.2-2.461,9.053a80.663,80.663,0,0,0-1.582,15.117,49.313,49.313,0,0,0,1.055,12.217,15.677,15.677,0,0,0,2.9,6.46,8.212,8.212,0,0,0,3.032,2.417,10.62,10.62,0,0,0,4.087.176Zm1.23-48.428q-.088-.527-1.274-1.494a8.88,8.88,0,0,0-1.8-1.23.954.954,0,0,1-.352-.176l-.264.527v.176a2.626,2.626,0,0,0,2.021,1.714ZM141.832,77a84.614,84.614,0,0,1-9.492-11.47,61.874,61.874,0,0,1-6.328-11.382q-1.318.352-2.417.615a9.092,9.092,0,0,1-3.3-.088q-.352,14.941-.352,17.666,0,3.428-1.494,4.131a7.149,7.149,0,0,1-3.076.7,7.021,7.021,0,0,1-3.164-.791q-1.582-.791-1.582-3.867.176-2.988.571-16.963t.835-24.3q.439-10.327,1.67-20.874a9.079,9.079,0,0,1,2.329-1.187,10.588,10.588,0,0,1,2.5-.22l1.143.615q3.779,0,6.9.264a22.579,22.579,0,0,1,7.031,1.978,20.436,20.436,0,0,1,7.075,5.273,18.24,18.24,0,0,1,4.219,8.042,30.582,30.582,0,0,1,.791,8.877,27.062,27.062,0,0,1-1.494,7.734,12.985,12.985,0,0,1-3.516,5.361,42.633,42.633,0,0,1-4.087,3.252,15.546,15.546,0,0,0-1.714,1.23,37.549,37.549,0,0,0,5.845,10.767q4.263,5.757,7.778,9.712,1.582,3.955-.132,4.526a17.683,17.683,0,0,1-2.9.747A11.314,11.314,0,0,1,141.832,77Zm-9.141-34.365a12.515,12.515,0,0,0,2.944-4.395,25.364,25.364,0,0,0,.879-4.219,17.393,17.393,0,0,0-.088-4.922,29.946,29.946,0,0,0-1.1-4.7A9.062,9.062,0,0,0,133,20.662a12.3,12.3,0,0,0-7.778-3.472q-2.109-.132-3.164-.132a121.326,121.326,0,0,0-1.143,14.326q-.176,7.471-.352,14.414h.615a8.087,8.087,0,0,0,2.065-.088q1.011-.176,3.691-.7A18.2,18.2,0,0,0,132.691,42.635ZM183.141,75.77a39.883,39.883,0,0,1-4.219-5.317q-1.758-2.681-6.68-9.536-4.131-5.8-5.8-8.35-.264,4.746-.439,9.932-.352,6.416-.879,11.689-1.582,2.9-5.537,2.9a4.281,4.281,0,0,1-3.516-4.482q.352-4.57.7-8.833t.571-8.394q.22-4.131.22-13.755T157.257,24.4q-.308-7.6-.308-12.261a22.825,22.825,0,0,1,1.494-1.846q.791-.879,3.076-.879t3.032.967a13.335,13.335,0,0,1,1.362,2.2q0,4.57.22,12.085t.308,11.03q1.143-2.988,6.064-10.459t7.119-10.327q2.2-2.856,3.34-4.351,3.428-2.285,6.284.22t-.044,5.405q-5.713,8.262-10.239,14.9a94.3,94.3,0,0,0-7.6,13.228q4.395,6.855,9.58,13.667t9.932,13.491q1.23,3.867-2.021,4.79A7.166,7.166,0,0,1,183.141,75.77Zm33.926,1.406a15.974,15.974,0,0,1-6.416-1.187,18.67,18.67,0,0,1-5.581-4.043,14.258,14.258,0,0,1-3.823-6.987A67.613,67.613,0,0,1,199.84,56.7q.264-3.164,2.373-3.779a7.225,7.225,0,0,1,3.735-.22q1.626.4,3.12,2.856.439,3.428,1.1,6.328a11.036,11.036,0,0,0,2.065,4.614,9,9,0,0,0,2.813,2.417,5.25,5.25,0,0,0,2.988.527,25.353,25.353,0,0,0,3.34-.615A4.317,4.317,0,0,0,224.1,66.8a13.143,13.143,0,0,0,1.45-3.3,9.043,9.043,0,0,0,.044-4.087,17.162,17.162,0,0,0-1.538-4.57,25.953,25.953,0,0,0-4.087-5.449,54.685,54.685,0,0,0-7.822-6.812,27.048,27.048,0,0,1-7.075-7.163,16.012,16.012,0,0,1-2.5-5.581,20.878,20.878,0,0,1,.088-5.01,15.672,15.672,0,0,1,2.417-6.372A26.968,26.968,0,0,1,209.6,12.84a12.2,12.2,0,0,1,5.054-2.988,20.905,20.905,0,0,1,5.493-.7,13,13,0,0,1,5.361,1.1,14.015,14.015,0,0,1,4.834,3.911,32.725,32.725,0,0,1,4.219,6.5,19.451,19.451,0,0,1,1.846,8.789,9.691,9.691,0,0,1-1.318,1.978,5.443,5.443,0,0,1-6.064,0,16.6,16.6,0,0,1-1.406-1.89,19.276,19.276,0,0,0-1.494-5.889A13.176,13.176,0,0,0,223.57,19.7a7.452,7.452,0,0,0-2.856-1.89,4.742,4.742,0,0,0-2.681-.176,8.388,8.388,0,0,0-2.021.747,6.316,6.316,0,0,0-1.8,1.846,14.643,14.643,0,0,0-1.758,3.384,8.036,8.036,0,0,0-.483,3.955,9.161,9.161,0,0,0,1.143,3.472,15.54,15.54,0,0,0,3.516,3.647q2.637,2.153,7.866,6.987a34.444,34.444,0,0,1,7.559,9.448,25.023,25.023,0,0,1,2.681,7.251,22.913,22.913,0,0,1,0,5.669,14.431,14.431,0,0,1-1.89,5.669,16.888,16.888,0,0,1-4.131,4.7,10.7,10.7,0,0,1-5.229,2.417A49.592,49.592,0,0,1,217.066,77.176Z" transform="translate(1223 340)"/><path class="a" d="M38.527,102.714H77.1A19.291,19.291,0,0,0,96.384,83.429h6.429a25.714,25.714,0,0,0,0-51.429H24.062a4.81,4.81,0,0,0-4.821,4.821V83.429A19.291,19.291,0,0,0,38.527,102.714Zm64.286-57.857a12.857,12.857,0,0,1,0,25.714H96.384V44.857ZM112.4,122H9.658C.1,122-2.6,109.143,2.426,109.143H119.607c5.022,0,2.371,12.857-7.212,12.857Z" transform="translate(1101.056 304)"/></g></svg>