<svg xmlns="http://www.w3.org/2000/svg" viewBox="0 0 431 100">
  <defs>
    <style>
      .cls-1, .cls-2 {
        fill: #87918f;
      }

      .cls-1 {
        font-size: 90px;
        font-family: Yutapon-coding-Heavy-Sl, Yutapon coding Heavy Sl;
      }
    </style>
  </defs>
  <g id="btn_profile" transform="translate(-143 -1051)">
    <text id="PROFILE" class="cls-1" transform="translate(233 1055)"><tspan x="13" y="77">PROFILE</tspan></text>
    <path id="user-regular" class="cls-2" d="M61.25,59.375c-5.605,0-8.3,3.125-17.5,3.125s-11.875-3.125-17.5-3.125A26.257,26.257,0,0,0,0,85.625v5A9.377,9.377,0,0,0,9.375,100h68.75A9.377,9.377,0,0,0,87.5,90.625v-5A26.257,26.257,0,0,0,61.25,59.375Zm16.875,31.25H9.375v-5A16.9,16.9,0,0,1,26.25,68.75c2.852,0,7.48,3.125,17.5,3.125,10.1,0,14.629-3.125,17.5-3.125A16.9,16.9,0,0,1,78.125,85.625ZM43.75,56.25A28.125,28.125,0,1,0,15.625,28.125,28.132,28.132,0,0,0,43.75,56.25Zm0-46.875A18.75,18.75,0,1,1,25,28.125,18.78,18.78,0,0,1,43.75,9.375Z" transform="translate(143 1051)"/>
  </g>
</svg>
