<svg xmlns="http://www.w3.org/2000/svg" viewBox="0 0 413.693 100"><defs><style>.a{fill:#87918f;}</style></defs><g transform="translate(-143 -1051)"><path class="a" d="M21.35,77.176q-2.461-.615-3.076-1.978a7.975,7.975,0,0,1-.615-3.3q.176-6.592.4-12.788t.4-12.876q.176-6.68.352-13.315t.088-13.052q-.088-6.416,1.67-9.668a7.826,7.826,0,0,1,2.461-.879,35.12,35.12,0,0,1,4.395-.176,44.531,44.531,0,0,1,9.492,1.494,21.546,21.546,0,0,1,10.459,5.713,22.442,22.442,0,0,1,5.625,8.306,21.837,21.837,0,0,1,1.1,8.657,23.355,23.355,0,0,1-1.978,8.218,20.513,20.513,0,0,1-6.284,7.251,28.757,28.757,0,0,1-9.844,5.1,32.988,32.988,0,0,1-8.745,1.494Q26.8,65.311,26.623,71.9a20.7,20.7,0,0,0,.132,2.373,2.22,2.22,0,0,1-.923,2.021Q24.777,77.176,21.35,77.176ZM40.6,41.58a9.875,9.875,0,0,0,3.164-3.823,26.51,26.51,0,0,0,1.011-3.647,16.5,16.5,0,0,0,.22-4.438,11.877,11.877,0,0,0-1.626-5.054,12.744,12.744,0,0,0-4.482-4.438,27.669,27.669,0,0,0-5.977-2.856,9.77,9.77,0,0,0-4.351-.7q-.352,9.316-.483,15.776T27.59,46.414a16.885,16.885,0,0,0,5.625-1.23A46.842,46.842,0,0,0,40.6,41.58ZM93.332,77A84.614,84.614,0,0,1,83.84,65.53a61.874,61.874,0,0,1-6.328-11.382q-1.318.352-2.417.615a9.092,9.092,0,0,1-3.3-.088q-.352,14.941-.352,17.666,0,3.428-1.494,4.131a7.149,7.149,0,0,1-3.076.7,7.021,7.021,0,0,1-3.164-.791q-1.582-.791-1.582-3.867.176-2.988.571-16.963t.835-24.3q.439-10.327,1.67-20.874a9.079,9.079,0,0,1,2.329-1.187,10.588,10.588,0,0,1,2.5-.22l1.143.615q3.779,0,6.9.264a22.579,22.579,0,0,1,7.031,1.978A20.436,20.436,0,0,1,92.189,17.1a18.24,18.24,0,0,1,4.219,8.042,30.582,30.582,0,0,1,.791,8.877,27.062,27.062,0,0,1-1.494,7.734,12.985,12.985,0,0,1-3.516,5.361A42.633,42.633,0,0,1,88.1,50.369a15.546,15.546,0,0,0-1.714,1.23,37.549,37.549,0,0,0,5.845,10.767q4.263,5.757,7.778,9.712,1.582,3.955-.132,4.526a17.683,17.683,0,0,1-2.9.747A11.314,11.314,0,0,1,93.332,77ZM84.191,42.635a12.515,12.515,0,0,0,2.944-4.395,25.364,25.364,0,0,0,.879-4.219,17.393,17.393,0,0,0-.088-4.922,29.946,29.946,0,0,0-1.1-4.7A9.062,9.062,0,0,0,84.5,20.662a12.3,12.3,0,0,0-7.778-3.472q-2.109-.132-3.164-.132a121.326,121.326,0,0,0-1.143,14.326q-.176,7.471-.352,14.414h.615a8.087,8.087,0,0,0,2.065-.088q1.011-.176,3.691-.7A18.2,18.2,0,0,0,84.191,42.635Zm39.463,34.541a18.045,18.045,0,0,1-6.284-1.187,15.32,15.32,0,0,1-6.24-4.834,22.371,22.371,0,0,1-4.307-10.107,70.686,70.686,0,0,1-1.143-14.722A85.656,85.656,0,0,1,107.7,29.407q1.89-8.657,5.493-13.359t7.471-6.064a14.68,14.68,0,0,1,7.207-.835,13.567,13.567,0,0,1,6.24,2.769,10.751,10.751,0,0,1,3.779,4.7q.176-.088,1.1-.615a7.326,7.326,0,0,1,2.856-.7q3.6,1.143,3.867,3.6a5.069,5.069,0,0,1-2.109,4.482l-2.021,1.143q.967,5.186,1.318,9.272t.352,14.37q0,10.283-1.846,15.645a19.836,19.836,0,0,1-5.449,8.569,17.547,17.547,0,0,1-6.372,4A21.508,21.508,0,0,1,123.654,77.176Zm4.746-9.4q1.143-1.23,2.5-2.856a10.431,10.431,0,0,0,1.978-3.56q.615-1.934.967-3.56a42.21,42.21,0,0,0,.439-6.592q.088-4.966,0-9.4t-.527-8.35q-.439-3.911-.879-6.284a17.26,17.26,0,0,1-6.68-.308,11.442,11.442,0,0,1-6.152-2.944q-1.582-1.758-1.23-.527-1.23,2.2-2.461,9.053a80.663,80.663,0,0,0-1.582,15.117,49.313,49.313,0,0,0,1.055,12.217,15.677,15.677,0,0,0,2.9,6.46,8.212,8.212,0,0,0,3.032,2.417,10.62,10.62,0,0,0,4.087.176Zm1.23-48.428q-.088-.527-1.274-1.494a8.88,8.88,0,0,0-1.8-1.23.954.954,0,0,1-.352-.176l-.264.527v.176a2.626,2.626,0,0,0,2.021,1.714Zm23.379,55.2q-.176-5.449-.044-11.03t.176-18.369q.044-12.788.22-17.8t.439-11.777a3.54,3.54,0,0,1-.308-1.23,7.778,7.778,0,0,1,0-2.021,2.762,2.762,0,0,1,1.143-1.846,6.657,6.657,0,0,1,2.153-1.143,22.382,22.382,0,0,1,6.021.132,51.093,51.093,0,0,0,8.306.308q4.395-.176,8.086-.176t6.943.176q3.6,1.582,3.6,3.34a6.1,6.1,0,0,1-.791,3.12q-.791,1.362-3.252,1.626-10.2-.352-14.722-.176a61.152,61.152,0,0,1-7.515-.088q-.527,5.537-.967,10.459t-.439,12.129q2.988,0,7.383-.176t9.756-.176a9.116,9.116,0,0,1,2.153,1.187,3.076,3.076,0,0,1,1.011,2.637q0,1.89-1.055,2.373t-2.109.923q-5.361.176-9.844.352t-7.119.264q-.176,10.371-.088,16.348t.088,10.2a4.353,4.353,0,0,1-4.57,3.076Q154.152,77.176,153.01,74.539Zm57.041,2.2q-6.064-.176-6.284-3.735t4.263-5.581l3.516-.439-.088-.7q-.7-11.777-.879-21.621,0-8.437.352-15.117l.176-8q0-1.055.088-1.934a11.969,11.969,0,0,1-2.2-.615,6.306,6.306,0,0,1-3.6-2.109,5.625,5.625,0,0,1-.967-4.395q1.143-2.812,6.592-3.516a37.034,37.034,0,0,1,5.493-.264,57.3,57.3,0,0,1,6.021.615q1.846,1.055,3.34,1.934a5.216,5.216,0,0,1,1.143,4.219q-.439,2.637-3.955,3.867l-2.2.527-.7.088a14.534,14.534,0,0,0-.176,1.934l-.176,7.734q-.527,7.207-.352,15.029.176,9.932,1.055,21.27l.176,1.055,1.67.088a5.209,5.209,0,0,1,4.131,5.186q-1.055,4.482-5.361,4.482Zm37.617,1.143a8.069,8.069,0,0,1-2.373-.835,5.6,5.6,0,0,1-1.582-1.626q.352-30.85.264-43.9t-.264-18.237q1.23-3.252,3.6-3.823a4.55,4.55,0,0,1,4,.659,5.39,5.39,0,0,1,1.8,4.219,168.3,168.3,0,0,0-.439,17.314q.088,13.008.088,37.529a80.331,80.331,0,0,1,9.36-.439q5.757,0,6.9.176l-.088-2.461,1.318-2.637a3.239,3.239,0,0,1,2.329-1.23q1.187,0,2.285.088a3.285,3.285,0,0,1,2.065,1.055q.967.967,1.143,3.779a27.559,27.559,0,0,0,.352,7.471,6.189,6.189,0,0,1-2.065,2.109,5.481,5.481,0,0,1-3.472.571,29.126,29.126,0,0,1-3.691-.571,40.831,40.831,0,0,0-6.987-.352,66.742,66.742,0,0,0-8.394.4Q250.92,77.527,247.668,77.879Zm45.7-.527a29.387,29.387,0,0,1-3.076-.7q-1.934-.527-.879-4.395a18.453,18.453,0,0,0,.527-2.109q.176-.967.176-7.778t-.176-13.711q-.176-6.9-.352-12.524t-.483-11.558q-.308-5.933-.483-12.349.7-1.055,1.274-1.758a5.265,5.265,0,0,1,2.241-1.318q14.854.439,19.2.615t8.833.7q2.285,1.758,2.285,2.856T322.331,16q-.132,1.582-3.208,2.549-4.834,0-9.229-.264t-12.041-.527q.088.879.352,6.943t.439,15.117q8.789,0,17.578-.352a18.782,18.782,0,0,1,2.153,1.274,2.958,2.958,0,0,1,1.1,2.637,2.841,2.841,0,0,1-1.1,2.593,16.667,16.667,0,0,1-2.065,1.143q-9.053.176-17.578.527.352,7.734.439,13.579t.088,7.6a89.83,89.83,0,0,1,9.624-.527q2.944.088,11.733-.176a9.158,9.158,0,0,1,2.109,1.143,3.251,3.251,0,0,1,.967,2.769,4.774,4.774,0,0,1-.879,3.12,3.659,3.659,0,0,1-2.549,1.23q-8.437.176-11.953.176t-7.251.264Q297.326,77.088,293.371,77.352Z" transform="translate(233 1055)"/><path class="a" d="M61.25,59.375c-5.605,0-8.3,3.125-17.5,3.125s-11.875-3.125-17.5-3.125A26.257,26.257,0,0,0,0,85.625v5A9.377,9.377,0,0,0,9.375,100h68.75A9.377,9.377,0,0,0,87.5,90.625v-5A26.257,26.257,0,0,0,61.25,59.375Zm16.875,31.25H9.375v-5A16.9,16.9,0,0,1,26.25,68.75c2.852,0,7.48,3.125,17.5,3.125,10.1,0,14.629-3.125,17.5-3.125A16.9,16.9,0,0,1,78.125,85.625ZM43.75,56.25A28.125,28.125,0,1,0,15.625,28.125,28.132,28.132,0,0,0,43.75,56.25Zm0-46.875A18.75,18.75,0,1,1,25,28.125,18.78,18.78,0,0,1,43.75,9.375Z" transform="translate(143 1051)"/></g></svg>