<svg xmlns="http://www.w3.org/2000/svg" viewBox="0 0 263 100">
  <defs>
    <style>
      .cls-1, .cls-2 {
        fill: rgba(123,237,206,0.8);
      }

      .cls-1 {
        font-size: 90px;
        font-family: Yutapon-coding-Heavy-Sl, Yutapon coding Heavy Sl;
      }
    </style>
  </defs>
  <g id="btn_sns_active" transform="translate(-1542 -328)">
    <text id="SNS" class="cls-1" transform="translate(1632 335)"><tspan x="19" y="77">SNS</tspan></text>
    <path id="globe-solid" class="cls-2" d="M67.843,38.645C64.919,20.641,58.024,8,50,8S35.081,20.641,32.157,38.645ZM30.645,58a126.369,126.369,0,0,0,.665,12.9H68.669A126.37,126.37,0,0,0,69.335,58a126.372,126.372,0,0,0-.665-12.9H31.31A126.369,126.369,0,0,0,30.645,58ZM96.109,38.645A50.106,50.106,0,0,0,64.254,10.1c4.919,6.815,8.306,17.077,10.081,28.548ZM35.726,10.1A50.072,50.072,0,0,0,3.891,38.645H25.665c1.754-11.472,5.141-21.734,10.06-28.548Zm62.54,35H75.141c.423,4.234.665,8.569.665,12.9s-.242,8.669-.665,12.9h23.1A49.569,49.569,0,0,0,99.98,58a50.435,50.435,0,0,0-1.714-12.9ZM24.194,58c0-4.335.242-8.669.665-12.9H1.734a48.879,48.879,0,0,0,0,25.806h23.1C24.435,66.669,24.194,62.335,24.194,58Zm7.964,19.355C35.081,95.359,41.976,108,50,108S64.919,95.359,67.843,77.355ZM64.274,105.9A50.153,50.153,0,0,0,96.129,77.355H74.355C72.581,88.827,69.194,99.089,64.274,105.9ZM3.891,77.355A50.106,50.106,0,0,0,35.746,105.9c-4.919-6.815-8.306-17.077-10.081-28.548H3.891Z" transform="translate(1542 320)"/>
  </g>
</svg>
