<svg xmlns="http://www.w3.org/2000/svg" viewBox="0 0 381.227 100"><defs><style>.a{fill:#87918f;}</style></defs><g transform="translate(-1515 -1045)"><path class="a" d="M-119.52.184a16.684,16.684,0,0,1-6.7-1.239,19.5,19.5,0,0,1-5.829-4.223,14.892,14.892,0,0,1-3.993-7.3,70.618,70.618,0,0,1-1.469-8.629q.275-3.3,2.479-3.947a7.547,7.547,0,0,1,3.9-.229q1.7.413,3.259,2.983.459,3.58,1.147,6.609a11.527,11.527,0,0,0,2.157,4.819,9.4,9.4,0,0,0,2.938,2.524,5.483,5.483,0,0,0,3.121.551,26.48,26.48,0,0,0,3.488-.643,4.509,4.509,0,0,0,2.846-2.111,13.727,13.727,0,0,0,1.515-3.442,9.445,9.445,0,0,0,.046-4.269,17.925,17.925,0,0,0-1.606-4.773,27.107,27.107,0,0,0-4.269-5.691,57.116,57.116,0,0,0-8.17-7.114,28.25,28.25,0,0,1-7.39-7.481,16.724,16.724,0,0,1-2.616-5.829,21.805,21.805,0,0,1,.092-5.232,16.368,16.368,0,0,1,2.524-6.655,28.167,28.167,0,0,1,4.728-5.875,12.742,12.742,0,0,1,5.278-3.121,21.834,21.834,0,0,1,5.737-.734,13.579,13.579,0,0,1,5.6,1.147,14.638,14.638,0,0,1,5.049,4.085,34.179,34.179,0,0,1,4.406,6.793,20.315,20.315,0,0,1,1.928,9.18A10.122,10.122,0,0,1-100.7-47.6q-.826.964-3.167.964t-3.167-.964A17.342,17.342,0,0,1-108.5-49.57a20.133,20.133,0,0,0-1.561-6.15,13.762,13.762,0,0,0-2.662-4.131,7.784,7.784,0,0,0-2.983-1.974,4.953,4.953,0,0,0-2.8-.184,8.761,8.761,0,0,0-2.111.78A6.6,6.6,0,0,0-122.5-59.3a15.294,15.294,0,0,0-1.836,3.534,8.393,8.393,0,0,0-.5,4.131,9.568,9.568,0,0,0,1.193,3.626,16.231,16.231,0,0,0,3.672,3.81q2.754,2.249,8.216,7.3a35.975,35.975,0,0,1,7.895,9.868,26.135,26.135,0,0,1,2.8,7.573,23.932,23.932,0,0,1,0,5.921,15.073,15.073,0,0,1-1.974,5.921,17.639,17.639,0,0,1-4.314,4.911,11.179,11.179,0,0,1-5.462,2.524A51.8,51.8,0,0,1-119.52.184Zm47.092,0a18.847,18.847,0,0,1-6.563-1.239A16,16,0,0,1-85.509-6.1q-3.167-3.81-4.5-10.557A73.828,73.828,0,0,1-91.2-32.037a89.462,89.462,0,0,1,2.111-17.671q1.974-9.042,5.737-13.953t7.8-6.334a15.333,15.333,0,0,1,7.527-.872A14.17,14.17,0,0,1-61.5-67.976a11.229,11.229,0,0,1,3.947,4.911q.184-.092,1.147-.643a7.651,7.651,0,0,1,2.983-.734q3.764,1.193,4.039,3.764A5.294,5.294,0,0,1-51.59-56L-53.7-54.8q1.01,5.416,1.377,9.685t.367,15.009q0,10.74-1.928,16.34a20.717,20.717,0,0,1-5.691,8.95A18.327,18.327,0,0,1-66.231-.643,22.464,22.464,0,0,1-72.428.184Zm4.957-9.822q1.193-1.285,2.616-2.983a10.894,10.894,0,0,0,2.065-3.718q.643-2.02,1.01-3.718a44.086,44.086,0,0,0,.459-6.885q.092-5.187,0-9.822t-.551-8.721q-.459-4.085-.918-6.563a18.027,18.027,0,0,1-6.977-.321,11.951,11.951,0,0,1-6.426-3.075q-1.652-1.836-1.285-.551-1.285,2.295-2.57,9.455A84.248,84.248,0,0,0-81.7-30.752a51.5,51.5,0,0,0,1.1,12.76,16.374,16.374,0,0,0,3.029,6.747A8.577,8.577,0,0,0-74.4-8.721a11.092,11.092,0,0,0,4.269.184Zm1.285-50.58q-.092-.551-1.331-1.561A9.274,9.274,0,0,0-69.4-63.064a1,1,0,0,1-.367-.184l-.275.551v.184a2.743,2.743,0,0,0,2.111,1.79ZM-21.3.184a19.651,19.651,0,0,1-9.317-2.111q-3.993-2.111-7.849-7.895a32.03,32.03,0,0,1-4.819-14.412,95.96,95.96,0,0,1-.5-16.34,65.351,65.351,0,0,1,2.249-14,24.376,24.376,0,0,1,5.691-10.373q3.9-4.085,7.527-5.095a17.382,17.382,0,0,1,6.885-.6,24.063,24.063,0,0,1,6.472,1.79,16.942,16.942,0,0,1,6.1,4.773A24.422,24.422,0,0,1-4.5-56.73a21.5,21.5,0,0,1,1.1,9.088,5.2,5.2,0,0,1-4.59,5.324q-5.508-.184-5.416-5.416a40.126,40.126,0,0,0-.184-4.131,15.463,15.463,0,0,0-.964-3.81,8.494,8.494,0,0,0-2.616-3.58,9.718,9.718,0,0,0-3.947-2.02,6.766,6.766,0,0,0-3.672,0,10.75,10.75,0,0,0-2.662,1.239,13.292,13.292,0,0,0-2.937,3.58q-1.836,2.846-3.121,9.042a52.9,52.9,0,0,0-1.01,12.943,105.087,105.087,0,0,0,1.147,12.209,19.909,19.909,0,0,0,3.4,8.858q2.524,3.4,4.865,4.269a9.025,9.025,0,0,0,4.223.643,4.986,4.986,0,0,0,2.616-.872,19.243,19.243,0,0,0,1.974-2.157,9.367,9.367,0,0,0,1.79-3.764,33.452,33.452,0,0,1,1.928-5.37,8.664,8.664,0,0,1,4.865-.5A5.324,5.324,0,0,1-4.59-18.176a15.93,15.93,0,0,1-1.652,7.481,23.873,23.873,0,0,1-4.177,6.472A13.471,13.471,0,0,1-15.238-.78,16.772,16.772,0,0,1-21.3.184ZM17.809-.275q-6.334-.184-6.563-3.9T15.7-10.006l3.672-.459-.092-.734q-.734-12.3-.918-22.582,0-8.812.367-15.789l.184-8.354q0-1.1.092-2.02a12.5,12.5,0,0,1-2.295-.643,6.587,6.587,0,0,1-3.764-2.2,5.875,5.875,0,0,1-1.01-4.59q1.193-2.938,6.885-3.672a38.68,38.68,0,0,1,5.737-.275,59.843,59.843,0,0,1,6.288.643q1.928,1.1,3.488,2.02a5.448,5.448,0,0,1,1.193,4.406q-.459,2.754-4.131,4.039l-2.295.551-.734.092a15.179,15.179,0,0,0-.184,2.02L28-49.479q-.551,7.527-.367,15.7.184,10.373,1.1,22.215l.184,1.1,1.744.092a5.441,5.441,0,0,1,4.314,5.416q-1.1,4.682-5.6,4.682ZM53.518.184Q50.3-.459,50.3-4.314,54.344-19.461,58.2-36.26T65.635-69.4q2.479-2.57,4.957-2.479t4.5,2.846Q78.67-51.039,82.709-34.7T91.338-2.662A5.27,5.27,0,0,1,88.676-.229,12.774,12.774,0,0,1,85.1.184a6.2,6.2,0,0,1-3.947-1.377,52.312,52.312,0,0,1-2.433-7.665q-1.239-4.911-2.157-7.757-4.865.275-7.16.184t-5.783.092q-.826,3.672-1.836,7.3T59.117-.734A6.811,6.811,0,0,1,53.518.184Zm20.2-25.152q-1.377-6.242-2.662-14.412-.643-4.223-.826-7.068Q69.857-43.6,68.848-39.2q-1.928,8.354-2.754,14.229h7.619ZM104.1.918a8.428,8.428,0,0,1-2.479-.872,5.845,5.845,0,0,1-1.652-1.7q.367-32.221.275-45.853t-.275-19.048q1.285-3.4,3.764-3.993a4.752,4.752,0,0,1,4.177.688q1.7,1.285,1.882,4.406a175.782,175.782,0,0,0-.459,18.084q.092,13.586.092,39.2a83.9,83.9,0,0,1,9.776-.459q6.013,0,7.206.184l-.092-2.57,1.377-2.754a3.383,3.383,0,0,1,2.433-1.285q1.239,0,2.387.092a3.431,3.431,0,0,1,2.157,1.1q1.01,1.01,1.193,3.947a28.784,28.784,0,0,0,.367,7.8,6.464,6.464,0,0,1-2.157,2.2,5.725,5.725,0,0,1-3.626.6,30.42,30.42,0,0,1-3.855-.6,42.645,42.645,0,0,0-7.3-.367,69.708,69.708,0,0,0-8.767.413Q107.494.551,104.1.918Z" transform="translate(1760 1134)"/><path class="a" d="M67.843,38.645C64.919,20.641,58.024,8,50,8S35.081,20.641,32.157,38.645ZM30.645,58a126.369,126.369,0,0,0,.665,12.9H68.669A126.37,126.37,0,0,0,69.335,58a126.372,126.372,0,0,0-.665-12.9H31.31A126.369,126.369,0,0,0,30.645,58ZM96.109,38.645A50.106,50.106,0,0,0,64.254,10.1c4.919,6.815,8.306,17.077,10.081,28.548ZM35.726,10.1A50.072,50.072,0,0,0,3.891,38.645H25.665c1.754-11.472,5.141-21.734,10.06-28.548Zm62.54,35H75.141c.423,4.234.665,8.569.665,12.9s-.242,8.669-.665,12.9h23.1A49.569,49.569,0,0,0,99.98,58a50.435,50.435,0,0,0-1.714-12.9ZM24.194,58c0-4.335.242-8.669.665-12.9H1.734a48.879,48.879,0,0,0,0,25.806h23.1C24.435,66.669,24.194,62.335,24.194,58Zm7.964,19.355C35.081,95.359,41.976,108,50,108S64.919,95.359,67.843,77.355ZM64.274,105.9A50.153,50.153,0,0,0,96.129,77.355H74.355C72.581,88.827,69.194,99.089,64.274,105.9ZM3.891,77.355A50.106,50.106,0,0,0,35.746,105.9c-4.919-6.815-8.306-17.077-10.081-28.548H3.891Z" transform="translate(1515 1037)"/></g></svg>