<svg xmlns="http://www.w3.org/2000/svg" viewBox="0 0 128 124.802"><defs><style>.a{fill:#87918f;}</style></defs><path class="a" d="M42.813,108.49c0,.516-.594.929-1.342.929-.852.077-1.445-.335-1.445-.929,0-.516.594-.929,1.342-.929C42.142,107.484,42.813,107.9,42.813,108.49Zm-8.026-1.161c-.181.516.335,1.11,1.11,1.265a1.21,1.21,0,0,0,1.6-.516c.155-.516-.335-1.11-1.11-1.342a1.325,1.325,0,0,0-1.6.594Zm11.406-.439c-.748.181-1.265.671-1.187,1.265.077.516.748.852,1.523.671.748-.181,1.265-.671,1.187-1.187C47.639,107.148,46.942,106.813,46.194,106.89ZM63.174,8C27.381,8,0,35.174,0,70.968c0,28.619,18.013,53.11,43.742,61.729,3.3.594,4.465-1.445,4.465-3.123,0-1.6-.077-10.426-.077-15.845,0,0-18.065,3.871-21.858-7.69,0,0-2.942-7.51-7.174-9.445,0,0-5.91-4.052.413-3.974a13.622,13.622,0,0,1,9.961,6.658c5.652,9.961,15.123,7.1,18.813,5.394a14.343,14.343,0,0,1,4.129-8.7c-14.426-1.6-28.981-3.69-28.981-28.516,0-7.1,1.961-10.658,6.09-15.2-.671-1.677-2.865-8.594.671-17.523C35.587,33.058,48,41.7,48,41.7a60.965,60.965,0,0,1,32.413,0s12.413-8.671,17.806-6.968c3.535,8.955,1.342,15.845.671,17.523,4.129,4.568,6.658,8.129,6.658,15.2,0,24.9-15.2,26.89-29.626,28.516,2.374,2.039,4.387,5.91,4.387,11.974,0,8.7-.077,19.458-.077,21.574,0,1.677,1.187,3.716,4.465,3.123C110.5,124.077,128,99.587,128,70.968,128,35.174,98.968,8,63.174,8ZM25.084,97.006c-.335.258-.258.852.181,1.342.413.413,1.006.594,1.342.258.335-.258.258-.852-.181-1.342C26.013,96.852,25.419,96.671,25.084,97.006ZM22.3,94.916c-.181.335.077.748.594,1.006A.768.768,0,0,0,24,95.742c.181-.335-.077-.748-.594-1.006C22.89,94.581,22.477,94.658,22.3,94.916Zm8.361,9.187c-.413.335-.258,1.11.335,1.6.594.594,1.342.671,1.677.258.335-.335.181-1.11-.335-1.6C31.768,103.768,30.994,103.69,30.658,104.1Zm-2.942-3.794c-.413.258-.413.929,0,1.523s1.11.852,1.445.594a1.177,1.177,0,0,0,0-1.6c-.361-.594-1.032-.852-1.445-.516Z" transform="translate(0 -8)"/></svg>