<svg xmlns="http://www.w3.org/2000/svg" viewBox="0 0 128 103.959"><defs><style>.a{fill:#87918f;}</style></defs><path class="a" d="M114.843,73.991c.081,1.137.081,2.274.081,3.411,0,34.68-26.4,74.64-74.64,74.64A74.134,74.134,0,0,1,0,140.265a54.27,54.27,0,0,0,6.335.325A52.538,52.538,0,0,0,38.9,129.382a26.28,26.28,0,0,1-24.528-18.193,33.083,33.083,0,0,0,4.955.406,27.745,27.745,0,0,0,6.9-.893A26.237,26.237,0,0,1,5.2,84.955V84.63a26.42,26.42,0,0,0,11.858,3.33A26.273,26.273,0,0,1,8.934,52.874,74.568,74.568,0,0,0,63.025,80.326a29.615,29.615,0,0,1-.65-6.01,26.259,26.259,0,0,1,45.4-17.949,51.649,51.649,0,0,0,16.65-6.335,26.163,26.163,0,0,1-11.533,14.457A52.591,52.591,0,0,0,128,60.427a56.392,56.392,0,0,1-13.157,13.563Z" transform="translate(0 -48.082)"/></svg>